<svg width="22" height="15" viewBox="0 0 22 15" fill="none" xmlns="http://www.w3.org/2000/svg">
<g clip-path="url(#clip0)">
<rect width="22" height="15" fill="white"/>
<path d="M18.912 3.652C19.592 3.652 20.14 3.932 20.556 4.492C20.98 5.052 21.192 5.86 21.192 6.916C21.192 7.612 21.072 8.204 20.832 8.692C20.592 9.18 20.268 9.548 19.86 9.796C19.46 10.044 19.012 10.168 18.516 10.168C18.22 10.168 17.932 10.108 17.652 9.988C17.38 9.868 17.14 9.696 16.932 9.472L16.08 10.192L15.876 10.108C15.932 9.908 15.96 9.676 15.96 9.412V2.044C15.96 1.676 15.892 1.408 15.756 1.24C15.62 1.072 15.384 0.987999 15.048 0.987999V0.736C15.304 0.76 15.552 0.771999 15.792 0.771999C16.296 0.771999 16.712 0.715999 17.04 0.603999V4.936C17.216 4.528 17.468 4.212 17.796 3.988C18.132 3.764 18.504 3.652 18.912 3.652ZM18.42 9.892C18.956 9.892 19.356 9.652 19.62 9.172C19.892 8.684 20.028 7.932 20.028 6.916C20.028 5.94 19.908 5.212 19.668 4.732C19.428 4.252 19.06 4.012 18.564 4.012C18.228 4.012 17.92 4.144 17.64 4.408C17.36 4.664 17.16 5.028 17.04 5.5V9.304C17.224 9.496 17.436 9.644 17.676 9.748C17.916 9.844 18.164 9.892 18.42 9.892Z" fill="#DAA340"/>
<path d="M14.793 14.077C14.331 14.077 13.9863 13.9633 13.759 13.736C13.539 13.5013 13.429 13.1787 13.429 12.768C13.429 12.438 13.517 12.1667 13.693 11.954C13.8763 11.7413 14.089 11.5727 14.331 11.448C14.5803 11.3233 14.9067 11.1913 15.31 11.052C15.7207 10.9127 16.025 10.7843 16.223 10.667C16.421 10.5497 16.52 10.392 16.52 10.194V9.512C16.52 9.08667 16.4283 8.797 16.245 8.643C16.069 8.48167 15.8197 8.401 15.497 8.401C14.9837 8.401 14.6207 8.533 14.408 8.797C14.5547 8.83367 14.6757 8.91067 14.771 9.028C14.8737 9.14533 14.925 9.292 14.925 9.468C14.925 9.65133 14.8663 9.798 14.749 9.908C14.6317 10.0107 14.4813 10.062 14.298 10.062C14.0927 10.062 13.9387 9.99967 13.836 9.875C13.7333 9.743 13.682 9.58533 13.682 9.402C13.682 9.226 13.7223 9.07933 13.803 8.962C13.891 8.84467 14.0193 8.72733 14.188 8.61C14.364 8.48533 14.5877 8.38267 14.859 8.302C15.1303 8.22133 15.4273 8.181 15.75 8.181C16.322 8.181 16.7547 8.31667 17.048 8.588C17.2313 8.75667 17.3523 8.962 17.411 9.204C17.477 9.43867 17.51 9.75033 17.51 10.139V13.197C17.51 13.3803 17.5357 13.5123 17.587 13.593C17.6383 13.6737 17.7263 13.714 17.851 13.714C17.939 13.714 18.0197 13.6957 18.093 13.659C18.1737 13.615 18.258 13.5563 18.346 13.483L18.467 13.67C18.2763 13.8167 18.1113 13.923 17.972 13.989C17.84 14.0477 17.6713 14.077 17.466 14.077C17.114 14.077 16.8683 13.989 16.729 13.813C16.5897 13.637 16.52 13.3987 16.52 13.098C16.3 13.4647 16.047 13.7213 15.761 13.868C15.475 14.0073 15.1523 14.077 14.793 14.077ZM15.277 13.637C15.761 13.637 16.1753 13.3583 16.52 12.801V10.645C16.454 10.7477 16.3623 10.832 16.245 10.898C16.1277 10.964 15.948 11.052 15.706 11.162C15.4273 11.2793 15.2 11.393 15.024 11.503C14.8553 11.6057 14.7087 11.7487 14.584 11.932C14.4593 12.1153 14.397 12.35 14.397 12.636C14.397 12.966 14.4777 13.2153 14.639 13.384C14.8003 13.5527 15.013 13.637 15.277 13.637Z" fill="#DC7629"/>
<path d="M16.492 2.504C16.436 3.072 16.408 3.584 16.408 4.04C16.408 4.44 16.42 4.768 16.444 5.024H16.168C16.104 4.408 16.024 3.952 15.928 3.656C15.832 3.352 15.664 3.132 15.424 2.996C15.184 2.852 14.816 2.78 14.32 2.78H13.564C13.276 2.78 13.064 2.804 12.928 2.852C12.8 2.892 12.712 2.98 12.664 3.116C12.616 3.252 12.592 3.472 12.592 3.776V6.728H13.468C13.748 6.728 13.964 6.664 14.116 6.536C14.268 6.4 14.368 6.244 14.416 6.068C14.472 5.884 14.516 5.656 14.548 5.384L14.584 5.144H14.86C14.836 5.48 14.824 5.856 14.824 6.272V6.848C14.824 7.256 14.848 7.824 14.896 8.552H14.62C14.612 8.496 14.588 8.304 14.548 7.976C14.508 7.64 14.396 7.388 14.212 7.22C14.036 7.052 13.788 6.968 13.468 6.968H12.592V9.728C12.592 10.032 12.624 10.252 12.688 10.388C12.752 10.524 12.864 10.616 13.024 10.664C13.184 10.712 13.444 10.744 13.804 10.76V11C13.388 10.976 12.8 10.964 12.04 10.964C11.352 10.964 10.84 10.976 10.504 11V10.76C10.792 10.744 11 10.712 11.128 10.664C11.264 10.616 11.356 10.524 11.404 10.388C11.452 10.252 11.476 10.032 11.476 9.728V3.776C11.476 3.472 11.452 3.252 11.404 3.116C11.356 2.98 11.264 2.888 11.128 2.84C11 2.792 10.792 2.76 10.504 2.744V2.504C11.288 2.528 12.448 2.54 13.984 2.54C15.16 2.54 15.996 2.528 16.492 2.504Z" fill="#573590"/>
<path d="M10.639 11.572C10.911 12.2747 11.302 12.6373 11.812 12.66V13C11.3587 12.966 10.7523 12.949 9.993 12.949C9.01833 12.949 8.293 12.966 7.817 13V12.66C8.24767 12.6373 8.55367 12.5863 8.735 12.507C8.92767 12.4163 9.024 12.2577 9.024 12.031C9.024 11.8383 8.956 11.572 8.82 11.232L7.783 8.444H3.669L2.972 10.246C2.74533 10.858 2.632 11.3227 2.632 11.64C2.632 11.9913 2.751 12.2463 2.989 12.405C3.23833 12.5637 3.61233 12.6487 4.111 12.66V13C3.465 12.966 2.81333 12.949 2.156 12.949C1.646 12.949 1.221 12.966 0.881 13V12.66C1.44767 12.524 1.89533 12.031 2.224 11.181L6.219 0.878999H6.491L10.639 11.572ZM7.647 8.104L5.743 3.021L3.805 8.104H7.647Z" fill="#D9212D"/>
<path d="M10.934 5.239C11.444 5.239 11.855 5.449 12.167 5.869C12.485 6.289 12.644 6.895 12.644 7.687C12.644 8.209 12.554 8.653 12.374 9.019C12.194 9.385 11.951 9.661 11.645 9.847C11.345 10.033 11.009 10.126 10.637 10.126C10.415 10.126 10.199 10.081 9.989 9.991C9.785 9.901 9.605 9.772 9.449 9.604L8.81 10.144L8.657 10.081C8.699 9.931 8.72 9.757 8.72 9.559V4.033C8.72 3.757 8.669 3.556 8.567 3.43C8.465 3.304 8.288 3.241 8.036 3.241V3.052C8.228 3.07 8.414 3.079 8.594 3.079C8.972 3.079 9.284 3.037 9.53 2.953V6.202C9.662 5.896 9.851 5.659 10.097 5.491C10.349 5.323 10.628 5.239 10.934 5.239ZM10.565 9.919C10.967 9.919 11.267 9.739 11.465 9.379C11.669 9.013 11.771 8.449 11.771 7.687C11.771 6.955 11.681 6.409 11.501 6.049C11.321 5.689 11.045 5.509 10.673 5.509C10.421 5.509 10.19 5.608 9.98 5.806C9.77 5.998 9.62 6.271 9.53 6.625V9.478C9.668 9.622 9.827 9.733 10.007 9.811C10.187 9.883 10.373 9.919 10.565 9.919Z" fill="#EA759F"/>
</g>
<defs>
<clipPath id="clip0">
<rect width="22" height="15" fill="white"/>
</clipPath>
</defs>
</svg>
